<?xml version="1.0" encoding="iso-8859-1"?>
<!-- Uploaded to: SVG Repo, www.svgrepo.com, Generator: SVG Repo Mixer Tools -->
<svg height="800px" width="800px" version="1.1" id="Layer_1" xmlns="http://www.w3.org/2000/svg" xmlns:xlink="http://www.w3.org/1999/xlink" 
	 viewBox="0 0 508 508" xml:space="preserve">
<path style="fill:#2D80A6;" d="M504,378.8c0,68.8-56.4,125.2-125.2,125.2H129.2C60.4,504,4,447.6,4,378.8V129.2
	C4,60.4,60.4,4,129.2,4h249.6C447.6,4,504,60.4,504,129.2V378.8z"/>
<path style="fill:#FFFFFF;" d="M349.2,99.2H158.4c-33.2,0-59.2,26-59.2,59.2V222v127.6c0,33.2,26,59.2,59.2,59.2h191.2
	c33.2,0,59.2-26,59.2-59.2V222v-63.6c0-33.2-26-59.2-59.2-59.2 M366.4,134h6.4v6.8v46h-52.4V134H366.4z M209.6,222
	c10-14,26-22.8,44.4-22.8s34.4,9.2,44.4,22.8c6.4,9.2,10.4,20,10.4,32c0,30.4-24.8,54.8-54.8,54.8c-30.4,0-54.8-24.8-54.8-54.8
	C199.2,242,202.8,231.2,209.6,222 M380.8,349.6c0,16.4-14.8,31.2-31.2,31.2H158.4c-16.4,0-31.2-14.8-31.2-31.2V222.4h48
	c-4,8-6.4,20.4-6.4,32c0,47.2,38.4,85.2,85.2,85.2c47.2,0,85.2-38,85.2-85.2c0-11.2-2.4-24-6.4-32h48L380.8,349.6L380.8,349.6z"/>
<path d="M378.8,508H129.2C58,508,0,450,0,378.8V129.2C0,58,58,0,129.2,0h249.6C450,0,508,58,508,129.2v249.6
	C508,450,450,508,378.8,508z M129.2,8C62.4,8,8,62.4,8,129.2v249.6C8,445.6,62.4,500,129.2,500h249.6c66.8,0,121.2-54.4,121.2-121.2
	V129.2C500,62.4,445.6,8,378.8,8H129.2z"/>
<path d="M370,484H138c-62,0-114-52.4-114-114V138C24,76,76,24,138,24h231.2c2.4,0,4,1.6,4,4s-1.6,4-4,4H138C80.4,32,32,80.4,32,138
	v232c0,57.6,48.8,106,106,106h232c57.6,0,106-48.8,106-106V258c0-2.4,1.6-4,4-4s4,1.6,4,4v112C484,432,432,484,370,484z"/>
<path d="M446.8,65.2c-1.2,0-2-0.4-2.8-1.2c-19.6-19.6-49.2-32-77.2-32c-2.4,0-4-1.6-4-4s1.6-4,4-4c30,0,61.6,13.2,82.8,34.4
	c1.6,1.6,1.6,4,0,5.6C449.2,64.8,448,65.2,446.8,65.2z"/>
<path d="M480,234c-2.4,0-4-1.6-4-4v-59.2c0-2.4,1.6-4,4-4s4,1.6,4,4V230C484,232.4,482.4,234,480,234z"/>
<path d="M254,312.8c-32.4,0-58.8-26.4-58.8-58.8c0-12.4,4-24.4,11.2-34.4c11.2-15.2,28.8-24.4,47.6-24.4s36.8,9.2,47.6,24.4
	c7.2,10,11.2,22,11.2,34.4C312.8,286.4,286.4,312.8,254,312.8z M254,203.2c-16.4,0-31.6,8-41.2,21.2c-6.4,8.8-9.6,19.2-9.6,29.6
	c0,28,22.8,50.8,50.8,50.8s50.8-22.8,50.8-50.8c0-10.8-3.2-20.8-9.6-29.6C285.6,211.2,270.4,203.2,254,203.2z"/>
<path d="M349.6,384.8H158.4c-18.8,0-35.2-16.4-35.2-35.2V222.4c0-2.4,1.6-4,4-4h48c1.2,0,2.8,0.8,3.6,2s0.8,2.8,0,4
	c-3.6,7.2-6,18.8-6,30c0,44.8,36.4,81.2,81.2,81.2s81.2-36.4,81.2-81.2c0-11.2-2.4-23.2-6-30c-0.8-1.2-0.4-2.8,0-4
	c0.8-1.2,2-2,3.6-2h48c2.4,0,4,1.6,4,4V350C384.8,368.4,368.4,384.8,349.6,384.8z M131.2,226.4V350c0,14.4,13.2,27.2,27.2,27.2
	h191.2c14.4,0,27.2-12.8,27.2-27.2V226.4h-38c2.8,8,4.4,18,4.4,28c0,49.2-40,89.2-89.2,89.2s-89.2-40-89.2-89.2c0-10,1.6-20,4.4-28
	L131.2,226.4L131.2,226.4z"/>
<path d="M320.8,190.8c-1.2,0-2-0.4-2.8-1.2s-1.2-1.6-1.2-2.8V134c0-2.4,1.6-4,4-4h52.4c1.2,0,2,0.4,2.8,1.2s1.2,1.6,1.2,2.8v52.8
	c0,2.4-1.6,4-4,4H320.8L320.8,190.8z M324.8,138v44.8h44.4V138H324.8z"/>
<path d="M349.6,412.8H158.4c-35.2,0-63.2-27.6-63.2-63.2V158.4c0-35.2,27.6-63.2,63.2-63.2h191.2c35.6,0,63.6,28,63.6,63.6
	c0,2.4-1.6,4-4,4s-4-1.6-4-4c0-31.2-24.4-55.6-55.6-55.6H158.4c-30.8,0-55.2,24-55.2,55.2V350c0,30.8,24,55.2,55.2,55.2h191.2
	c30.8,0,55.2-24,55.2-55.2v-96c0-2.4,1.6-4,4-4s4,1.6,4,4v95.6C412.8,385.2,385.2,412.8,349.6,412.8z"/>
</svg>